#!OML:ASF H:\Dans Jumps\Project 1\Capture day 1\Session 1\subject.ASF
:FULLY-SPECIFIED
:DEGREES
104
root 0.554718 17.6193 -13.9035 6.92284 -1.60156 -0.947215
lowerback -3.31455 -0.297215 -0.170925
upperback 3.38788 -0.450116 1.27468
thorax 5.37755 -0.257359 1.3813
lowerneck -12.6979 0.985209 -1.73603
upperneck 33.7326 1.57021 0.991051
head 13.4539 0.589263 0.930515
rclavicle 2.98177e-016 1.90833e-014
rhumerus -23.6071 -15.6114 -80.3289
rradius 24.773
rwrist 33.402
rhand -17.7897 -27.1382
rfingers 7.12502
rthumb 8.47331 -56.9482
lclavicle 2.98177e-016 1.90833e-014
lhumerus -20.6579 -1.61957 88.0065
lradius 19.1308
lwrist -0.887934
lhand -23.6603 -2.07679
lfingers 7.12502
lthumb 2.80538 27.8845
rfemur -14.373 -2.77731 19.3508
rtibia 22.9206
rfoot -14.232 -4.04551
rtoes 12.1525
lfemur -12.5047 5.9984 -18.8044
ltibia 19.0217
lfoot -10.8464 7.11212
ltoes 5.98479
105
root 0.554813 17.6194 -13.9037 6.9276 -1.60474 -0.948604
lowerback -3.30885 -0.295819 -0.172238
upperback 3.38878 -0.448159 1.27482
thorax 5.3752 -0.25644 1.38236
lowerneck -12.7034 0.97906 -1.73888
upperneck 33.7475 1.56101 0.994265
head 13.4617 0.585133 0.931159
rclavicle 1.78906e-015 -7.15625e-015
rhumerus -23.6136 -15.6478 -80.3085
rradius 24.7553
rwrist 33.4268
rhand -17.7846 -27.1369
rfingers 7.12502
rthumb 8.47824 -56.9467
lclavicle 1.78906e-015 -7.15625e-015
lhumerus -20.6718 -1.62348 87.9925
lradius 19.1201
lwrist -0.887108
lhand -23.6555 -2.10471
lfingers 7.12502
lthumb 2.81011 27.8565
rfemur -14.3797 -2.77751 19.352
rtibia 22.9205
rfoot -14.2323 -4.0421
rtoes 12.1493
lfemur -12.5102 5.9986 -18.804
ltibia 19.0197
lfoot -10.8425 7.11622
ltoes 5.97858
106
root 0.5549 17.6194 -13.9039 6.93132 -1.6085 -0.949284
lowerback -3.30335 -0.294149 -0.174
upperback 3.39027 -0.445803 1.27466
thorax 5.37356 -0.255339 1.38338
lowerneck -12.7102 0.973853 -1.74258
upperneck 33.7634 1.55308 0.998669
head 13.4702 0.581596 0.932639
rclavicle 6.31141e-015 5.96354e-016
rhumerus -23.615 -15.6785 -80.2938
rradius 24.7397
rwrist 33.4478
rhand -17.7802 -27.1289
rfingers 7.12502
rthumb 8.48248 -56.9385
lclavicle 6.31141e-015 5.96354e-016
lhumerus -20.6827 -1.63939 87.9839
lradius 19.1159
lwrist -0.87899
lhand -23.6495 -2.12956
lfingers 7.12502
lthumb 2.81583 27.8316
rfemur -14.3858 -2.77724 19.3524
rtibia 22.9218
rfoot -14.2333 -4.03862
rtoes 12.1514
lfemur -12.5139 6.00084 -18.8043
ltibia 19.0168
lfoot -10.8385 7.11793
ltoes 5.9609
107
root 0.554981 17.6193 -13.9041 6.93425 -1.61243 -0.949271
lowerback -3.29868 -0.293112 -0.177013
upperback 3.39247 -0.444257 1.275
thorax 5.37319 -0.254706 1.38557
lowerneck -12.7192 0.969888 -1.74377
upperneck 33.7818 1.54791 0.99847
head 13.4803 0.578943 0.932322
rclavicle -1.53064e-014 1.86858e-014
rhumerus -23.612 -15.6959 -80.2858
rradius 24.7292
rwrist 33.461
rhand -17.778 -27.1203
rfingers 7.12502
rthumb 8.48453 -56.9298
lclavicle -1.53064e-014 1.86858e-014
lhumerus -20.6899 -1.65759 87.9798
lradius 19.1174
lwrist -0.871069
lhand -23.6489 -2.15348
lfingers 7.12502
lthumb 2.81646 27.8077
rfemur -14.3916 -2.77592 19.3519
rtibia 22.9236
rfoot -14.2346 -4.03616
rtoes 12.152
lfemur -12.5165 6.00437 -18.8053
ltibia 19.014
lfoot -10.8359 7.11785
ltoes 5.9422
108
root 0.555085 17.6193 -13.9044 6.93597 -1.61712 -0.946242
lowerback -3.29297 -0.292534 -0.182983
upperback 3.3955 -0.443129 1.27473
thorax 5.37311 -0.254387 1.38875
lowerneck -12.7296 0.967184 -1.74363
upperneck 33.8005 1.54522 0.995493
head 13.4909 0.57716 0.931057
rclavicle 3.32964e-015 -2.5842e-015
rhumerus -23.6037 -15.7003 -80.2856
rradius 24.7237
rwrist 33.4638
rhand -17.7759 -27.1181
rfingers 7.12502
rthumb 8.48657 -56.9275
lclavicle 3.32964e-015 -2.5842e-015
lhumerus -20.6945 -1.68511 87.981
lradius 19.1279
lwrist -0.854961
lhand -23.6563 -2.17644
lfingers 7.12502
lthumb 2.80931 27.7848
rfemur -14.3969 -2.77475 19.348
rtibia 22.9262
rfoot -14.2333 -4.03277
rtoes 12.1596
lfemur -12.5179 6.00801 -18.8095
ltibia 19.0118
lfoot -10.8344 7.1175
ltoes 5.92967
109
root 0.555198 17.6193 -13.9047 6.93646 -1.61957 -0.942816
lowerback -3.28571 -0.293529 -0.189004
upperback 3.39817 -0.444107 1.27485
thorax 5.37185 -0.255118 1.3922
lowerneck -12.7355 0.965605 -1.74523
upperneck 33.8168 1.54437 0.99302
head 13.4994 0.576049 0.930492
rclavicle -6.16232e-015 1.17283e-014
rhumerus -23.5931 -15.6874 -80.2932
rradius 24.7245
rwrist 33.4542
rhand -17.7781 -27.1169
rfingers 7.12502
rthumb 8.48447 -56.9264
lclavicle -6.16232e-015 1.17283e-014
lhumerus -20.6979 -1.717 87.9866
lradius 19.1447
lwrist -0.832545
lhand -23.6749 -2.20905
lfingers 7.12502
lthumb 2.79136 27.7524
rfemur -14.401 -2.77434 19.3438
rtibia 22.9287
rfoot -14.2317 -4.03128
rtoes 12.1626
lfemur -12.5186 6.01121 -18.814
ltibia 19.0111
lfoot -10.8353 7.11571
ltoes 5.93049
110
root 0.555282 17.6192 -13.9053 6.93647 -1.61984 -0.938968
lowerback -3.27671 -0.295434 -0.195823
upperback 3.40086 -0.446253 1.27507
thorax 5.36964 -0.256456 1.39612
lowerneck -12.7424 0.963622 -1.74471
upperneck 33.8324 1.54326 0.987865
head 13.5078 0.574744 0.928455
rclavicle -1.59028e-015 1.5704e-014
rhumerus -23.5798 -15.66 -80.3087
rradius 24.7324
rwrist 33.4367
rhand -17.7786 -27.1236
rfingers 7.12502
rthumb 8.48399 -56.9331
lclavicle -1.59028e-015 1.5704e-014
lhumerus -20.6969 -1.75307 87.9959
lradius 19.1684
lwrist -0.800088
lhand -23.6852 -2.22639
lfingers 7.12502
lthumb 2.78138 27.7352
rfemur -14.4051 -2.77492 19.3394
rtibia 22.9319
rfoot -14.2301 -4.03075
rtoes 12.1605
lfemur -12.5201 6.01385 -18.8187
ltibia 19.0114
lfoot -10.8366 7.11293
ltoes 5.93628
111
root 0.555277 17.6191 -13.9059 6.93727 -1.6188 -0.935462
lowerback -3.26656 -0.297722 -0.20349
upperback 3.40216 -0.448865 1.27577
thorax 5.36534 -0.258056 1.40097
lowerneck -12.743 0.961321 -1.74555
upperneck 33.8433 1.54174 0.983143
head 13.5128 0.573206 0.926644
rclavicle 4.77083e-015 -5.76476e-015
rhumerus -23.5633 -15.6268 -80.3296
rradius 24.7422
rwrist 33.4152
rhand -17.7829 -27.1284
rfingers 7.12502
rthumb 8.47989 -56.9381
lclavicle 4.77083e-015 -5.76476e-015
lhumerus -20.6928 -1.7917 88.009
lradius 19.1972
lwrist -0.761759
lhand -23.6847 -2.21933
lfingers 7.12502
lthumb 2.78182 27.7423
rfemur -14.4104 -2.77407 19.336
rtibia 22.935
rfoot -14.2281 -4.0331
rtoes 12.1541
lfemur -12.5239 6.01594 -18.8227
ltibia 19.0128
lfoot -10.837 7.11221
ltoes 5.94782
112
root 0.555221 17.6191 -13.9067 6.9377 -1.6155 -0.932873
lowerback -3.25466 -0.300216 -0.210096
upperback 3.4028 -0.451788 1.27629
thorax 5.35934 -0.259755 1.40503
lowerneck -12.74 0.958482 -1.74617
upperneck 33.8513 1.539 0.979226
head 13.5158 0.571309 0.924859
rclavicle -2.73329e-015 -2.78299e-015
rhumerus -23.5456 -15.5877 -80.3566
rradius 24.7572
rwrist 33.3912
rhand -17.7883 -27.1343
rfingers 7.12502
rthumb 8.47465 -56.9442
lclavicle -2.73329e-015 -2.78299e-015
lhumerus -20.6855 -1.83875 88.0261
lradius 19.2306
lwrist -0.713776
lhand -23.6796 -2.20299
lfingers 7.12502
lthumb 2.78678 27.7586
rfemur -14.4158 -2.77484 19.3341
rtibia 22.9393
rfoot -14.2277 -4.03549
rtoes 12.1477
lfemur -12.5285 6.01775 -18.8253
ltibia 19.0143
lfoot -10.8351 7.10892
ltoes 5.95947
113
root 0.555177 17.619 -13.9075 6.93764 -1.60955 -0.933357
lowerback -3.24175 -0.302452 -0.213234
upperback 3.40423 -0.454622 1.27783
thorax 5.35357 -0.2613 1.40819
lowerneck -12.7374 0.95412 -1.74827
upperneck 33.8563 1.53399 0.976598
head 13.5175 0.568448 0.923473
rclavicle -7.15625e-015 1.53064e-014
rhumerus -23.5242 -15.5421 -80.3886
rradius 24.7771
rwrist 33.3605
rhand -17.792 -27.1407
rfingers 7.12502
rthumb 8.47107 -56.9509
lclavicle -7.15625e-015 1.53064e-014
lhumerus -20.6732 -1.89688 88.0495
lradius 19.2701
lwrist -0.654472
lhand -23.6757 -2.17449
lfingers 7.12502
lthumb 2.79059 27.787
rfemur -14.4201 -2.77769 19.3356
rtibia 22.9438
rfoot -14.2291 -4.03751
rtoes 12.1438
lfemur -12.5335 6.01804 -18.8244
ltibia 19.016
lfoot -10.8323 7.10609
ltoes 5.96571
114
root 0.555196 17.6189 -13.9083 6.93611 -1.60374 -0.933702
lowerback -3.22821 -0.304518 -0.21667
upperback 3.40664 -0.457242 1.27987
thorax 5.34848 -0.262769 1.41207
lowerneck -12.7353 0.950058 -1.75058
upperneck 33.8607 1.52956 0.973803
head 13.5191 0.565799 0.922142
rclavicle 2.73329e-015 1.11319e-014
rhumerus -23.4972 -15.4932 -80.4247
rradius 24.7997
rwrist 33.3276
rhand -17.7938 -27.1385
rfingers 7.12502
rthumb 8.46935 -56.9487
lclavicle 2.73329e-015 1.11319e-014
lhumerus -20.6578 -1.96609 88.079
lradius 19.314
lwrist -0.589925
lhand -23.6868 -2.16829
lfingers 7.12502
lthumb 2.77988 27.7933
rfemur -14.4228 -2.78219 19.3364
rtibia 22.9486
rfoot -14.2317 -4.03735
rtoes 12.1458
lfemur -12.5373 6.01669 -18.8237
ltibia 19.0178
lfoot -10.8301 7.10361
ltoes 5.96406
115
root 0.555242 17.6189 -13.9091 6.93499 -1.59794 -0.936343
lowerback -3.21713 -0.306283 -0.217708
upperback 3.41053 -0.459673 1.28284
thorax 5.34633 -0.264087 1.41559
lowerneck -12.7352 0.946012 -1.75347
upperneck 33.8638 1.52523 0.971369
head 13.5205 0.563184 0.921077
rclavicle 4.77083e-015 4.37326e-015
rhumerus -23.4658 -15.433 -80.467
rradius 24.83
rwrist 33.2813
rhand -17.7944 -27.1367
rfingers 7.12502
rthumb 8.46879 -56.9469
lclavicle 4.77083e-015 4.37326e-015
lhumerus -20.6371 -2.0428 88.1143
lradius 19.3592
lwrist -0.522587
lhand -23.711 -2.17063
lfingers 7.12502
lthumb 2.75651 27.7913
rfemur -14.4251 -2.78635 19.3396
rtibia 22.9524
rfoot -14.2336 -4.03731
rtoes 12.1417
lfemur -12.5418 6.01426 -18.8206
ltibia 19.0204
lfoot -10.8288 7.09954
ltoes 5.96374
